<svg width="29" height="29" viewBox="0 0 29 29" fill="none" xmlns="http://www.w3.org/2000/svg">
<path fill-rule="evenodd" clip-rule="evenodd" d="M9.44331 26.1668H19.5544C23.5097 26.1668 26.1661 23.3924 26.1661 19.264V9.73634C26.1661 5.60796 23.5097 2.8335 19.5556 2.8335H9.44331C5.48914 2.8335 2.83276 5.60796 2.83276 9.73634V19.264C2.83276 23.3924 5.48914 26.1668 9.44331 26.1668ZM10.4141 13.3336C8.8057 13.3336 7.49878 12.0249 7.49878 10.4169C7.49878 8.80891 8.8057 7.50022 10.4141 7.50022C12.0214 7.50022 13.3295 8.80891 13.3295 10.4169C13.3295 12.0249 12.0214 13.3336 10.4141 13.3336ZM23.6232 17.9232C24.0138 18.9249 23.8109 20.1289 23.3932 21.121C22.8982 22.3009 21.9502 23.1942 20.7559 23.5843C20.2257 23.7577 19.6696 23.8336 19.1147 23.8336H9.28232C8.30389 23.8336 7.43809 23.5988 6.72832 23.1617C6.28369 22.8872 6.20509 22.2539 6.53475 21.8434C7.08614 21.1571 7.63049 20.4684 8.17953 19.7737C9.22601 18.4445 9.93108 18.0592 10.7148 18.3975C11.0327 18.5372 11.3518 18.7467 11.6803 18.9682C12.5555 19.563 13.7721 20.3805 15.3746 19.4932C16.4713 18.879 17.1073 17.8254 17.6612 16.9079L17.6705 16.8926C17.7098 16.8282 17.7487 16.7638 17.7874 16.6996L17.7875 16.6996C17.9736 16.3916 18.1573 16.0877 18.365 15.8078C18.6255 15.4574 19.591 14.3618 20.8416 15.142C21.6382 15.6332 22.3081 16.2978 23.0249 17.0093C23.2982 17.2814 23.493 17.5909 23.6232 17.9232Z" fill="#455A64"/>
</svg>
